# xmcd
#
# Track frame offsets: 
#        183
#        26830
#        46395
#        66950
#        90080
#        114410
#
# Disc length: 1682 seconds
#
# Revision: 0
# Processed by: cddbd v1.5.2PL0 Copyright (c) Steve Scherf et al.
# Submitted via: ExactAudioCopy v1.0b3
#
DISCID=44069006
DTITLE=Smokey Robinson and The Miracles - What Love Has... Joined Togeth
DTITLE=er
DYEAR=1970
DGENRE=Motown
TTITLE0=What Love Has Joined Together
TTITLE1=My Cherie Amour
TTITLE2=If This World Were Mine
TTITLE3=You've Made Me So Very Happy
TTITLE4=This Guy's In Love With You
TTITLE5=And I Love Her
EXTD=
EXTT0=
EXTT1=
EXTT2=
EXTT3=
EXTT4=
EXTT5=
PLAYORDER=
